<svg width="128mm" height="128mm" version="1.1" viewBox="0 0 128 128" xmlns="http://www.w3.org/2000/svg">
 <g transform="matrix(.35278 0 0 -.35278 79.596 44.563)">
  <path d="m8.5526-232.14c-5.9353-0.24653-11.727 3.9651-12.859 9.8767-0.83989 4.8717-0.14349 9.8706-0.32665 14.793-5e-3 13.743 0.32548 27.495-5e-3 41.233-0.58729 9.8426-3.8017 20.252-11.746 26.644-1.8907 1.7524-3.7815 3.5047-5.6722 5.2571 8.0372 0.99943 16.297 1.7964 23.835 3.2979 16.241 3.1396 32.675 9.4681 44.034 21.962 1.6768 1.8285 2.8033 3.2246 4.3097 5.279 10.691 14.806 13.938 33.541 14.187 51.443 0.50563 15.018-3.9308 30.282-13.252 42.165-1.7536 2.3011-3.7273 4.4187-5.6225 6.6016 6.0786 13.776 5.1888 29.781 0.13739 43.726-10.407-0.0734-20.137-4.6165-29.188-9.3427-5.3415-2.8759-10.438-6.1754-15.466-9.563-4.1831 1.1457-8.0736 2.1554-12.039 2.9466-15.382 3.124-31.599 4.1711-47.432 2.7137-10.325-0.8944-20.226-2.7012-30.244-5.5253-1.6657 0.05013-3.0464 1.8432-4.5985 2.5872-10.934 7.0155-22.621 13.633-35.582 15.857-1.6727 0.2108-3.3557 0.39577-5.0442 0.32636-5.0188-13.95-5.9164-29.947 0.16577-43.72-7.9982-8.4289-14.265-18.675-16.945-30.057-2.9687-12.096-2.1686-24.752-0.49263-36.978 2.3486-15.845 8.8645-31.657 21.057-42.452 3.6862-3.3168 7.9217-6.2389 12.023-8.4638 14.895-8.1738 31.963-10.782 48.633-12.591 2.2119-0.0833 3.9388-0.32251 1.3147-1.9608-4.3407-3.9996-9.1877-7.8111-11.533-13.416-2.3043-4.679-3.2727-9.8508-3.9922-14.975-11.083-5.1805-24.026-7.9478-35.98-4.194-10.43 3.1326-18.582 11.287-23.799 20.615-5.2301 8.0172-13.723 14.921-23.654 15.209-2.5776 0.25654 0.2925-1.3124 1.099-2.0083 10.861-6.3092 17.888-17.486 22.37-28.934 4.5547-10.822 15.704-17.566 27.01-19.26 10.956-1.855 22.073 0.058 32.782 2.4665 0.04198-13.263 0.30761-26.533 0.20611-39.793-0.39632-6.1202-5.6218-11.375-11.772-11.686-5.7011-0.6422-10.862 2.3185-16.077 4.1224-40.755 16.192-75.105 47.755-94.722 86.97-19.612 38.593-24.439 84.312-13.743 126.22 9.9806 39.797 34.095 75.781 66.923 100.36 30.721 23.227 69.023 36.17 107.54 36.324 38.918 0.43613 77.83-12.164 109.07-35.383 33.292-24.456 57.808-60.591 68.024-100.63 10.733-41.451 6.2903-86.68-12.675-125.11-18.875-38.783-52.073-70.334-91.784-87.177-5.0457-2.0276-10.078-4.3074-15.376-5.5406-1.0209-0.18527-2.0633-0.23071-3.0984-0.2395z" fill="#1b1817" fill-rule="evenodd"/>
 </g>
</svg>
